<svg width="600" height="400" viewBox="0 0 600 400" xmlns="http://www.w3.org/2000/svg"><mask id="satori_om-id"><rect x="0" y="0" width="600" height="400" fill="#fff"/></mask><rect x="0" y="0" width="600" height="400" fill="#fff"/><mask id="satori_om-id-0"><rect x="197" y="197" width="207" height="46" fill="#fff"/></mask><path fill="black" d="M219.7 220.2L219.7 205.1L222.3 205.1L222.3 220.2L219.7 220.2ZM203.6 223.8L203.6 221.7L222.3 221.7L222.3 228.6L206.2 228.6L206.2 232.7L203.7 232.7L203.7 226.6L219.7 226.6L219.7 223.8L203.6 223.8ZM203.7 233.8L203.7 231.7L223.3 231.7L223.3 233.8L203.7 233.8ZM200.1 219.0L200.1 206.3L202.7 206.3L202.7 210.5L211.0 210.5L211.0 206.3L213.6 206.3L213.6 219.0L200.1 219.0ZM211.0 212.6L202.7 212.6L202.7 216.8L211.0 216.8L211.0 212.6ZM231.4 221.2L231.4 219.0L251.2 219.0L251.2 221.2L231.4 221.2ZM228.0 230.2L228.0 227.9L254.3 227.9L254.3 230.2L228.0 230.2ZM231.4 220.0L231.4 207.8L251.0 207.8L251.0 210.0L234.0 210.0L234.0 220.0L231.4 220.0ZM269.2 218.6L269.2 216.4L274.7 216.4L274.7 218.6L269.2 218.6ZM279.5 234.1L279.5 205.1L282.1 205.1L282.1 234.1L279.5 234.1ZM273.8 232.6L273.8 205.7L276.3 205.7L276.3 232.6L273.8 232.6ZM264.0 207.6L264.0 207.6Q265.9 207.6 267.3 208.8Q268.6 210.0 269.4 212.3Q270.2 214.5 270.2 217.6L270.2 217.6Q270.2 220.7 269.4 223.0Q268.6 225.3 267.3 226.5Q265.9 227.7 264.0 227.7L264.0 227.7Q262.2 227.7 260.8 226.5Q259.4 225.3 258.6 223.0Q257.8 220.7 257.8 217.6L257.8 217.6Q257.8 214.5 258.6 212.3Q259.4 210.0 260.8 208.8Q262.2 207.6 264.0 207.6ZM264.0 210.0L264.0 210.0Q262.9 210.0 262.0 211.0Q261.2 211.9 260.7 213.6Q260.3 215.3 260.3 217.6L260.3 217.6Q260.3 219.9 260.7 221.7Q261.2 223.4 262.0 224.3Q262.9 225.2 264.0 225.2L264.0 225.2Q265.1 225.2 266.0 224.3Q266.8 223.4 267.3 221.7Q267.7 219.9 267.7 217.6L267.7 217.6Q267.7 215.3 267.3 213.6Q266.8 211.9 266.0 211.0Q265.1 210.0 264.0 210.0ZM286.9 219.4L286.9 217.2L313.1 217.2L313.1 219.4L286.9 219.4ZM290.4 214.9L290.4 212.7L310.0 212.7L310.0 214.9L290.4 214.9ZM290.4 214.4L290.4 206.1L309.7 206.1L309.7 208.2L293.0 208.2L293.0 214.4L290.4 214.4ZM290.1 224.0L290.1 221.9L309.7 221.9L309.7 228.7L292.7 228.7L292.7 232.3L290.2 232.3L290.2 226.7L307.1 226.7L307.1 224.0L290.1 224.0ZM290.2 233.7L290.2 231.6L310.6 231.6L310.6 233.7L290.2 233.7ZM324.1 207.4L324.1 207.4Q326.2 207.4 327.8 208.6Q329.4 209.8 330.4 212.1Q331.3 214.4 331.3 217.4L331.3 217.4Q331.3 220.5 330.4 222.8Q329.4 225.1 327.8 226.3Q326.2 227.6 324.1 227.6L324.1 227.6Q322.0 227.6 320.3 226.3Q318.7 225.1 317.8 222.8Q316.9 220.5 316.9 217.4L316.9 217.4Q316.9 214.4 317.8 212.1Q318.7 209.8 320.3 208.6Q322.0 207.4 324.1 207.4ZM324.1 209.7L324.1 209.7Q322.7 209.7 321.6 210.7Q320.6 211.6 320.0 213.4Q319.4 215.1 319.4 217.4L319.4 217.4Q319.4 219.8 320.0 221.5Q320.6 223.3 321.6 224.2Q322.7 225.2 324.1 225.2L324.1 225.2Q325.5 225.2 326.5 224.2Q327.6 223.3 328.2 221.5Q328.8 219.8 328.8 217.4L328.8 217.4Q328.8 215.1 328.2 213.4Q327.6 211.6 326.5 210.7Q325.5 209.7 324.1 209.7ZM337.5 234.1L337.5 205.1L340.2 205.1L340.2 234.1L337.5 234.1ZM330.4 218.3L330.4 216.2L338.7 216.2L338.7 218.3L330.4 218.3ZM365.4 234.1L365.4 205.1L368.0 205.1L368.0 234.1L365.4 234.1ZM367.3 219.1L367.3 216.9L372.6 216.9L372.6 219.1L367.3 219.1ZM358.0 208.6L358.0 208.2L360.6 208.2Q360.6 212.4 359.2 216.1Q357.9 219.9 355.0 223.1Q352.1 226.2 347.4 228.6L347.4 228.6L346.0 226.5Q350.0 224.5 352.7 221.8Q355.3 219.1 356.7 215.8Q358.0 212.5 358.0 208.6L358.0 208.6ZM347.3 210.4L347.3 208.2L359.3 208.2L359.3 210.4L347.3 210.4ZM396.8 218.9L396.8 216.7L402.1 216.7L402.1 218.9L396.8 218.9ZM394.8 234.1L394.8 205.1L397.5 205.1L397.5 234.1L394.8 234.1ZM376.4 225.9L376.4 208.0L379.0 208.0L379.0 225.9L376.4 225.9ZM376.4 226.7L376.4 224.5L378.7 224.5Q381.9 224.5 385.2 224.2Q388.6 223.9 392.1 223.2L392.1 223.2L392.5 225.4Q388.7 226.2 385.4 226.5Q382.0 226.7 378.7 226.7L378.7 226.7L376.4 226.7Z "/></svg>